#!OML:ASF I:\Actors\actors\Patient Classification 1\Patient 1\Session 1\Subject1.ASF
:FULLY-SPECIFIED
:DEGREES
139
root 0.77816 17.4512 9.24178 11.0261 -3.10658 -9.0635
lowerback -3.303 0.079167 4.81533
upperback -9.61176 0.360492 2.96612
thorax -8.25818 -0.0567653 0.431175
lowerneck -1.22789 -14.663 -14.8141
upperneck 20.0018 -20.9793 8.06838
head 8.89642 -10.5445 2.92555
rclavicle -2.33572e-015 1.99779e-014
rhumerus -52.3375 -39.0845 -51.0762
rradius 25.3981
rwrist 48.5945
rhand 5.23881 -32.2046
rfingers 7.12502
rthumb 30.5977 -59.6819
lclavicle -2.33572e-015 1.99779e-014
lhumerus -58.9584 45.8568 46.6809
lradius 23.1455
lwrist -25.7077
lhand -17.5491 -8.0414
lfingers 7.12502
lthumb 8.70547 21.7591
rfemur -5.48528 26.7259 24.4697
rtibia 1.28998
rfoot -11.0201 -25.8326
rtoes 0.411703
lfemur 4.39754 -47.3972 -12.141
ltibia -4.73995
lfoot -26.1925 55.8241
ltoes 16.4031
140
root 0.777409 17.4504 9.24458 11.0159 -3.17345 -9.07344
lowerback -3.33661 0.0959502 4.80233
upperback -9.59277 0.378792 2.96
thorax -8.21673 -0.0462567 0.430665
lowerneck -1.30982 -14.6215 -14.4345
upperneck 20.1343 -20.8963 7.82252
head 8.87404 -10.4959 2.80403
rclavicle -7.52897e-015 2.76311e-014
rhumerus -52.3621 -39.1561 -51.0679
rradius 25.4221
rwrist 48.5945
rhand 5.29479 -32.09
rfingers 7.12502
rthumb 30.6511 -59.5574
lclavicle -7.52897e-015 2.76311e-014
lhumerus -59.3044 46.1267 46.1483
lradius 22.9491
lwrist -26.0925
lhand -17.5175 -7.88207
lfingers 7.12502
lthumb 8.73594 21.9171
rfemur -5.46915 26.6624 24.4875
rtibia 1.2756
rfoot -10.9497 -25.7341
rtoes 0.269876
lfemur 4.37951 -47.1646 -12.1279
ltibia -4.70307
lfoot -26.0527 55.6794
ltoes 16.3644
141
root 0.777148 17.4494 9.24615 10.9894 -3.23954 -9.10513
lowerback -3.32416 0.124639 4.82702
upperback -9.57341 0.417389 2.95709
thorax -8.20156 -0.0287293 0.412067
lowerneck -1.38306 -14.5788 -14.311
upperneck 20.239 -20.8412 7.79695
head 8.89897 -10.4605 2.78058
rclavicle 1.3418e-015 1.27222e-014
rhumerus -52.4063 -39.1961 -51.083
rradius 25.5007
rwrist 48.5339
rhand 5.37766 -32.0689
rfingers 7.12502
rthumb 30.7301 -59.5215
lclavicle 1.3418e-015 1.27222e-014
lhumerus -59.4963 46.2689 45.8544
lradius 22.8162
lwrist -26.2988
lhand -17.4135 -7.81112
lfingers 7.12502
lthumb 8.83635 21.9839
rfemur -5.44652 26.5709 24.5389
rtibia 1.28288
rfoot -10.8498 -25.6137
rtoes 0.00639718
lfemur 4.43335 -47.0602 -12.1376
ltibia -4.68795
lfoot -26.1646 55.6093
ltoes 16.4637
142
root 0.777687 17.4488 9.24759 10.966 -3.30374 -9.17247
lowerback -3.31636 0.15822 4.90002
upperback -9.548 0.46322 2.9628
thorax -8.17723 -0.0106438 0.375394
lowerneck -1.58066 -14.4632 -14.1531
upperneck 20.491 -20.6925 7.80346
head 8.98519 -10.3708 2.76337
rclavicle 9.01985e-015 2.38542e-015
rhumerus -52.3753 -39.1139 -51.2274
rradius 25.6079
rwrist 48.3041
rhand 5.44851 -32.2086
rfingers 7.12502
rthumb 30.7977 -59.6484
lclavicle 9.01985e-015 2.38542e-015
lhumerus -59.5789 46.337 45.7424
lradius 22.7481
lwrist -26.3603
lhand -17.4406 -7.80286
lfingers 7.12502
lthumb 8.81015 21.9932
rfemur -5.43346 26.4777 24.6291
rtibia 1.32172
rfoot -10.7845 -25.473
rtoes -0.323663
lfemur 4.52007 -47.0019 -12.1243
ltibia -4.70311
lfoot -26.2203 55.6018
ltoes 16.4101
143
root 0.777592 17.4485 9.24844 10.9648 -3.3588 -9.22545
lowerback -3.32829 0.198059 4.96496
upperback -9.52253 0.51508 2.95582
thorax -8.14082 0.0107112 0.329525
lowerneck -1.65434 -14.3929 -13.9893
upperneck 20.5176 -20.6147 7.87042
head 8.98623 -10.3151 2.76992
rclavicle -8.44835e-016 -1.82882e-014
rhumerus -52.3044 -38.9942 -51.4125
rradius 25.6557
rwrist 48.0399
rhand 5.43095 -32.3202
rfingers 7.12502
rthumb 30.7809 -59.7632
lclavicle -8.44835e-016 -1.82882e-014
lhumerus -59.5802 46.3759 45.7428
lradius 22.7317
lwrist -26.3542
lhand -17.4814 -7.90551
lfingers 7.12502
lthumb 8.77079 21.8922
rfemur -5.45055 26.4445 24.6884
rtibia 1.36655
rfoot -10.81 -25.3815
rtoes -0.345389
lfemur 4.54927 -46.9527 -12.0878
ltibia -4.70839
lfoot -26.1496 55.644
ltoes 16.277
144
root 0.776044 17.4479 9.24848 10.982 -3.39426 -9.25775
lowerback -3.34391 0.22694 4.99312
upperback -9.51012 0.552146 2.95059
thorax -8.11691 0.0272685 0.306738
lowerneck -1.70735 -14.3133 -13.9453
upperneck 20.525 -20.5427 8.05691
head 9.00488 -10.2617 2.83075
rclavicle -2.21148e-015 -3.1408e-014
rhumerus -52.3464 -39.0253 -51.4092
rradius 25.6303
rwrist 48.0616
rhand 5.3762 -32.3184
rfingers 7.12502
rthumb 30.7287 -59.7712
lclavicle -2.21148e-015 -3.1408e-014
lhumerus -59.5078 46.3091 45.8886
lradius 22.8043
lwrist -26.2647
lhand -17.332 -8.10773
lfingers 7.12502
lthumb 8.91499 21.6839
rfemur -5.48414 26.4536 24.7152
rtibia 1.37919
rfoot -10.8374 -25.3554
rtoes -0.172122
lfemur 4.54602 -46.9809 -12.0451
ltibia -4.70922
lfoot -26.1993 55.7108
ltoes 16.2725
145
root 0.774417 17.4472 9.24935 11.0114 -3.42908 -9.25953
lowerback -3.38865 0.253695 4.98335
upperback -9.50422 0.584225 2.95096
thorax -8.08323 0.0445401 0.311197
lowerneck -1.85416 -14.2188 -14.04
upperneck 20.6597 -20.4604 8.32596
head 9.10823 -10.2014 2.92665
rclavicle 8.24956e-015 -3.22031e-014
rhumerus -52.5025 -39.1876 -51.2146
rradius 25.5998
rwrist 48.2917
rhand 5.39063 -32.3657
rfingers 7.12502
rthumb 30.7425 -59.8159
lclavicle 8.24956e-015 -3.22031e-014
lhumerus -59.3125 46.0829 46.2798
lradius 22.9653
lwrist -25.9438
lhand -17.2289 -8.25143
lfingers 7.12502
lthumb 9.01451 21.536
rfemur -5.52228 26.4921 24.7005
rtibia 1.37471
rfoot -10.8177 -25.3822
rtoes -0.183267
lfemur 4.52763 -46.9889 -12.0225
ltibia -4.71486
lfoot -26.2925 55.7244
ltoes 16.3663
